<svg width="149" height="149" viewBox="0 0 149 149" fill="none" xmlns="http://www.w3.org/2000/svg">
<g clip-path="url(#clip0_68_4138)">
<path d="M0 121.137C0 128.885 2.73167 135.441 8.195 140.805C13.6583 146.169 20.264 148.901 28.012 149H121.137C128.786 149 135.342 146.268 140.805 140.805C146.268 135.342 149 128.786 149 121.137V28.012C149 20.264 146.268 13.6583 140.805 8.195C135.342 2.73167 128.786 0 121.137 0H28.012C20.264 0 13.6583 2.73167 8.195 8.195C2.73167 13.6583 0 20.264 0 28.012L0 121.137ZM18.625 121.137V28.012C18.625 25.4293 19.519 23.244 21.307 21.456C23.095 19.668 25.33 18.7243 28.012 18.625H121.137C123.62 18.625 125.806 19.5687 127.693 21.456C129.58 23.3433 130.474 25.5287 130.375 28.012V121.137C130.375 123.72 129.481 125.905 127.693 127.693C125.905 129.481 123.72 130.375 121.137 130.375H28.012C25.4293 130.375 23.1943 129.481 21.307 127.693C19.4197 125.905 18.5257 123.72 18.625 121.137ZM28.012 111.75C28.012 114.333 28.906 116.568 30.694 118.455C32.482 120.342 34.6673 121.236 37.25 121.137H111.75C114.333 121.137 116.518 120.243 118.306 118.455C120.094 116.667 121.038 114.432 121.137 111.75V107.429C120.442 106.038 118.703 101.866 115.922 94.913C113.141 87.9597 110.657 82.397 108.472 78.225C106.287 74.053 104.3 70.775 102.512 68.391C100.823 66.603 99.085 65.6593 97.297 65.56C95.509 65.4607 93.721 66.0567 91.933 67.348C90.145 68.6393 88.357 70.3777 86.569 72.563C84.781 74.7483 82.9433 77.182 81.056 79.864C79.1687 82.546 77.3807 85.1783 75.692 87.761C74.0033 90.3437 72.2153 92.827 70.328 95.211C68.4407 97.595 66.752 99.4327 65.262 100.724C63.772 102.015 62.0833 102.711 60.196 102.81C58.408 102.81 55.8253 100.575 52.448 96.105C51.9513 95.509 51.2063 94.5653 50.213 93.274C46.7363 88.6053 44.253 85.7743 42.763 84.781C40.379 83.1917 38.5413 83.738 37.25 86.42C36.5547 88.0093 35.1143 91.486 32.929 96.85C30.7437 102.214 29.1047 106.187 28.012 108.77V111.75ZM28.012 42.018C28.012 45.892 29.353 49.17 32.035 51.852C34.717 54.534 37.995 55.875 41.869 55.875C45.743 55.875 49.0707 54.534 51.852 51.852C54.6333 49.17 55.9743 45.892 55.875 42.018C55.7757 38.144 54.4347 34.8163 51.852 32.035C49.2693 29.2537 45.9417 27.9127 41.869 28.012C37.7963 28.1113 34.5183 29.4523 32.035 32.035C29.5517 34.6177 28.2107 37.9453 28.012 42.018Z" fill="#141414"/>
</g>
<defs>
<clipPath id="clip0_68_4138">
<rect width="149" height="149" fill="white"/>
</clipPath>
</defs>
</svg>
